<svg width="75" height="70" viewBox="0 0 75 70" fill="none" xmlns="http://www.w3.org/2000/svg">
<path id="Path 3" fill-rule="evenodd" clip-rule="evenodd" d="M74.2461 1.99998L74.2378 0C73.2195 0.00420616 72.212 0.0189311 71.2153 0.0443559L71.2663 2.04371C72.2487 2.01865 73.2418 2.00413 74.2461 1.99998ZM8.0541 56.0769C8.09605 55.725 8.1396 55.375 8.18476 55.0268L6.20138 54.7696C6.14978 55.1673 6.10024 55.5674 6.05278 55.9699L-0.000396729 55.6461L6.24197 70L13.9796 56.3938L8.0541 56.0769ZM68.195 0.155913L68.2923 2.15355C67.2902 2.20233 66.2999 2.26278 65.3213 2.33508L65.1739 0.340511C66.1694 0.266969 67.1764 0.205504 68.195 0.155913ZM62.3595 2.59384L62.158 0.604022C61.1417 0.706934 60.1381 0.823256 59.1471 0.953213L59.4071 2.93624C60.3785 2.80886 61.3626 2.6948 62.3595 2.59384ZM56.132 1.3972L56.4555 3.37087C55.4697 3.53244 54.4978 3.7087 53.5398 3.89987L53.1484 1.93854C54.1292 1.74283 55.1237 1.56246 56.132 1.3972ZM50.6513 4.53173L50.1871 2.58635C49.1904 2.82417 48.2089 3.07903 47.2428 3.3512L47.785 5.27628C48.7251 5.01147 49.6805 4.76337 50.6513 4.53173ZM44.3138 4.24495L44.9397 6.1445C43.9948 6.45581 43.0668 6.7854 42.1556 7.13353L41.4418 5.26525C42.3823 4.90592 43.3396 4.56592 44.3138 4.24495ZM39.4288 8.25303L38.6229 6.42259C37.6843 6.83584 36.7641 7.27006 35.8623 7.72555L36.764 9.51075C37.634 9.07129 38.5224 8.65214 39.4288 8.25303ZM33.1765 9.17679L34.1765 10.9089C33.3225 11.4019 32.4878 11.9165 31.6726 12.4529L30.5732 10.7822C31.4211 10.2242 32.289 9.68919 33.1765 9.17679ZM29.2472 14.1569L28.0478 12.5565C27.2297 13.1695 26.4325 13.8064 25.6561 14.4672L26.9525 15.9901C27.6973 15.3562 28.4622 14.7452 29.2472 14.1569ZM23.3645 16.5469L24.755 17.9844C24.0528 18.6636 23.371 19.3658 22.7095 20.0914L21.2315 18.744C21.9212 17.9874 22.6323 17.2551 23.3645 16.5469ZM20.7966 22.3261L19.2376 21.0732C18.6021 21.864 17.9874 22.6784 17.3936 23.5166L19.0257 24.6727C19.596 23.8674 20.1864 23.0853 20.7966 22.3261ZM15.7057 26.0545L17.4024 27.1133C16.8877 27.938 16.3919 28.7847 15.9152 29.6535L14.1618 28.6914C14.6565 27.7899 15.1711 26.911 15.7057 26.0545ZM14.568 32.2733L12.7659 31.4058C12.3296 32.3121 11.9118 33.2392 11.5127 34.1873L13.356 34.9633C13.7422 34.046 14.1462 33.1493 14.568 32.2733ZM10.3903 37.0431L12.2683 37.7309C11.9337 38.6443 11.6155 39.5767 11.3137 40.5282L9.40733 39.9236C9.71793 38.9443 10.0456 37.9842 10.3903 37.0431ZM10.4785 43.3641L8.54899 42.8379C8.28599 43.8024 8.03844 44.7842 7.80643 45.7835L9.75461 46.2358C9.9809 45.2612 10.2222 44.3039 10.4785 43.3641ZM7.16938 48.7707L9.13243 49.1534C8.94569 50.1114 8.77259 51.0851 8.61322 52.0748L6.63866 51.7568C6.80149 50.7456 6.97842 49.7503 7.16938 48.7707Z" fill="#F698AD"/>
</svg>
