<svg width="76" height="70" viewBox="0 0 76 70" fill="none" xmlns="http://www.w3.org/2000/svg">
<path id="Path 2" fill-rule="evenodd" clip-rule="evenodd" d="M0.996094 1.99998L1.00435 0C2.02272 0.00420616 3.03014 0.0189311 4.02688 0.0443559L3.97588 2.04371C2.99352 2.01865 2.00034 2.00413 0.996094 1.99998ZM67.1881 56.0769C67.1461 55.725 67.1026 55.375 67.0574 55.0268L69.0408 54.7696C69.0924 55.1673 69.1419 55.5674 69.1894 55.9699L75.2426 55.6461L69.0002 70L61.2626 56.3938L67.1881 56.0769ZM7.04714 0.155913L6.94989 2.15355C7.95199 2.20233 8.94228 2.26278 9.92093 2.33508L10.0683 0.340511C9.07279 0.266969 8.0658 0.205504 7.04714 0.155913ZM12.8827 2.59384L13.0842 0.604022C14.1005 0.706934 15.1041 0.823256 16.0951 0.953213L15.8351 2.93624C14.8637 2.80886 13.8796 2.6948 12.8827 2.59384ZM19.1102 1.3972L18.7867 3.37087C19.7725 3.53244 20.7444 3.7087 21.7024 3.89987L22.0938 1.93854C21.113 1.74283 20.1185 1.56246 19.1102 1.3972ZM24.5909 4.53173L25.0551 2.58635C26.0518 2.82417 27.0332 3.07903 27.9994 3.3512L27.4571 5.27628C26.5171 5.01147 25.5617 4.76337 24.5909 4.53173ZM30.9284 4.24495L30.3025 6.1445C31.2474 6.45581 32.1754 6.7854 33.0866 7.13353L33.8004 5.26525C32.8599 4.90592 31.9025 4.56592 30.9284 4.24495ZM35.8134 8.25303L36.6193 6.42259C37.5579 6.83584 38.4781 7.27006 39.3799 7.72555L38.4782 9.51075C37.6081 9.07129 36.7198 8.65214 35.8134 8.25303ZM42.0656 9.17679L41.0657 10.9089C41.9197 11.4019 42.7544 11.9165 43.5695 12.4529L44.669 10.7822C43.8211 10.2242 42.9532 9.68919 42.0656 9.17679ZM45.995 14.1569L47.1944 12.5565C48.0124 13.1695 48.8097 13.8064 49.586 14.4672L48.2896 15.9901C47.5449 15.3562 46.78 14.7452 45.995 14.1569ZM51.8777 16.5469L50.4872 17.9844C51.1893 18.6636 51.8712 19.3658 52.5327 20.0914L54.0107 18.744C53.321 17.9874 52.6099 17.2551 51.8777 16.5469ZM54.4456 22.3261L56.0045 21.0732C56.6401 21.864 57.2548 22.6784 57.8486 23.5166L56.2165 24.6727C55.6462 23.8674 55.0558 23.0853 54.4456 22.3261ZM59.5365 26.0545L57.8398 27.1133C58.3545 27.938 58.8503 28.7847 59.327 29.6535L61.0804 28.6914C60.5857 27.7899 60.0711 26.911 59.5365 26.0545ZM60.6742 32.2733L62.4763 31.4058C62.9126 32.3121 63.3303 33.2392 63.7295 34.1873L61.8861 34.9633C61.5 34.046 61.0959 33.1493 60.6742 32.2733ZM64.8519 37.0431L62.9739 37.7309C63.3084 38.6443 63.6267 39.5767 63.9284 40.5282L65.8349 39.9236C65.5243 38.9443 65.1966 37.9842 64.8519 37.0431ZM64.7636 43.3641L66.6932 42.8379C66.9562 43.8024 67.2038 44.7842 67.4358 45.7835L65.4876 46.2358C65.2613 45.2612 65.0199 44.3039 64.7636 43.3641ZM68.0728 48.7707L66.1098 49.1534C66.2965 50.1114 66.4696 51.0851 66.629 52.0748L68.6035 51.7568C68.4407 50.7456 68.2638 49.7503 68.0728 48.7707Z" fill="#F698AD"/>
</svg>
