<svg width="40" height="40" viewBox="0 0 40 40" fill="none" xmlns="http://www.w3.org/2000/svg">
<rect width="40" height="40" rx="20" fill="#EE325C"/>
<path fill-rule="evenodd" clip-rule="evenodd" d="M13.996 14.3681C13.5645 14.7927 13.5645 15.4884 13.996 15.913L18.4166 20.2627L13.996 24.6123C13.5645 25.0369 13.5645 25.7326 13.996 26.1572C14.4178 26.5722 15.0944 26.5722 15.5161 26.1572L19.9617 21.783L24.4072 26.1572C24.829 26.5722 25.5056 26.5722 25.9273 26.1572C26.3588 25.7326 26.3588 25.0369 25.9273 24.6123L21.5068 20.2627L25.9273 15.913C26.3588 15.4884 26.3588 14.7927 25.9273 14.3681C25.5056 13.9531 24.829 13.9531 24.4072 14.3681L19.9617 18.7423L15.5161 14.3681C15.0944 13.9531 14.4178 13.9531 13.996 14.3681Z" fill="white"/>
</svg>
