<svg width="55" height="76" viewBox="0 0 55 76" fill="none" xmlns="http://www.w3.org/2000/svg">
<path opacity="0.5" d="M35.9997 52.8801L33.0238 55.8561H53.7598V74.0961H5.08775V57.4881L26.3037 35.8881L29.5678 32.6241C31.0078 30.9921 32.5438 28.4961 32.5438 26.2881C32.5438 22.9281 29.9517 20.8161 26.4958 20.8161C22.5597 20.8161 17.7598 23.3121 11.9998 28.4001L1.34375 14.0001C9.69575 5.84011 18.8158 1.80811 28.8958 1.80811C35.9038 1.80811 41.7598 3.92011 46.4637 8.24011C51.1677 12.5601 53.4717 17.7441 53.4717 23.9841C53.4717 28.6881 52.0318 33.2961 49.0558 37.6161C46.1758 41.9361 41.8557 47.0241 35.9997 52.8801Z" fill="white" stroke="#EE325C" stroke-width="2"/>
</svg>
