<svg width="62" height="73" viewBox="0 0 62 73" fill="none" xmlns="http://www.w3.org/2000/svg">
<g opacity="0.5">
<path fill-rule="evenodd" clip-rule="evenodd" d="M60.2723 41.0879H52.9763V1.05591H37.0403L1.9043 43.9679L5.7443 57.2159H34.7363V71.9999H52.9763V57.2159H60.2723V41.0879ZM22.2563 41.0879L34.7363 25.4399V41.0879H22.2563Z" fill="white"/>
<path d="M52.9763 41.0879H51.9763V42.0879H52.9763V41.0879ZM60.2723 41.0879H61.2723V40.0879H60.2723V41.0879ZM52.9763 1.05591H53.9763V0.0559082H52.9763V1.05591ZM37.0403 1.05591V0.0559082H36.5666L36.2666 0.422388L37.0403 1.05591ZM1.9043 43.9679L1.13057 43.3344L0.797437 43.7412L0.94383 44.2463L1.9043 43.9679ZM5.7443 57.2159L4.78383 57.4943L4.99299 58.2159H5.7443V57.2159ZM34.7363 57.2159H35.7363V56.2159H34.7363V57.2159ZM34.7363 71.9999H33.7363V72.9999H34.7363V71.9999ZM52.9763 71.9999V72.9999H53.9763V71.9999H52.9763ZM52.9763 57.2159V56.2159H51.9763V57.2159H52.9763ZM60.2723 57.2159V58.2159H61.2723V57.2159H60.2723ZM34.7363 25.4399H35.7363V22.5823L33.9545 24.8164L34.7363 25.4399ZM22.2563 41.0879L21.4745 40.4644L20.1797 42.0879H22.2563V41.0879ZM34.7363 41.0879V42.0879H35.7363V41.0879H34.7363ZM52.9763 42.0879H60.2723V40.0879H52.9763V42.0879ZM51.9763 1.05591V41.0879H53.9763V1.05591H51.9763ZM37.0403 2.05591H52.9763V0.0559082H37.0403V2.05591ZM2.67802 44.6014L37.814 1.68943L36.2666 0.422388L1.13057 43.3344L2.67802 44.6014ZM6.70476 56.9375L2.86476 43.6895L0.94383 44.2463L4.78383 57.4943L6.70476 56.9375ZM34.7363 56.2159H5.7443V58.2159H34.7363V56.2159ZM35.7363 71.9999V57.2159H33.7363V71.9999H35.7363ZM52.9763 70.9999H34.7363V72.9999H52.9763V70.9999ZM51.9763 57.2159V71.9999H53.9763V57.2159H51.9763ZM60.2723 56.2159H52.9763V58.2159H60.2723V56.2159ZM59.2723 41.0879V57.2159H61.2723V41.0879H59.2723ZM33.9545 24.8164L21.4745 40.4644L23.0381 41.7114L35.5181 26.0634L33.9545 24.8164ZM35.7363 41.0879V25.4399H33.7363V41.0879H35.7363ZM22.2563 42.0879H34.7363V40.0879H22.2563V42.0879Z" fill="#EE325C"/>
</g>
</svg>
