<svg width="56" height="77" viewBox="0 0 56 77" fill="none" xmlns="http://www.w3.org/2000/svg">
<path opacity="0.5" d="M27.0551 75.1521C18.5111 75.1521 10.2551 72.8481 2.28711 68.1441L10.2551 52.3041C15.6311 55.2801 20.7191 56.8161 25.4231 56.8161C30.7031 56.8161 33.4871 54.8961 33.4871 51.8241C33.4871 49.2321 30.9911 47.5041 27.0551 47.5041H17.7431V29.7441H24.3671C29.2631 29.7441 31.8551 27.8241 31.8551 25.1361C31.8551 22.3521 29.1671 20.6241 25.4231 20.6241C22.2551 20.6241 18.1271 22.1601 13.1351 25.2321L3.91911 10.8321C10.9271 4.78411 19.0871 1.80811 28.3031 1.80811C34.7351 1.80811 40.3031 3.53611 44.9111 7.08811C49.5191 10.5441 51.8231 14.8641 51.8231 20.1441C51.8231 27.5361 46.7351 33.2001 40.2071 35.6001V35.9841C49.3271 38.0001 54.2231 45.1041 54.2231 53.5521C54.2231 59.9841 51.7271 65.1681 46.6391 69.2001C41.5511 73.1361 35.0231 75.1521 27.0551 75.1521Z" fill="white" stroke="#EE325C" stroke-width="2"/>
</svg>
