<svg width="24" height="24" viewBox="0 0 24 24" fill="none" xmlns="http://www.w3.org/2000/svg">
<circle cx="12" cy="12" r="12" fill="#6BBC13"/>
<path d="M16.1834 9.19495L15.459 8.41658C15.3597 8.30977 15.2389 8.25635 15.0969 8.25635C14.9548 8.25635 14.8339 8.30977 14.7346 8.41658L11.2402 12.1769L9.67418 10.4884C9.57473 10.3816 9.454 10.3282 9.312 10.3282C9.16991 10.3282 9.04918 10.3816 8.94974 10.4884L8.22532 11.2668C8.12587 11.3737 8.07617 11.5034 8.07617 11.6561C8.07617 11.8086 8.12587 11.9385 8.22532 12.0453L10.1536 14.1171L10.878 14.8955C10.9774 15.0024 11.0982 15.0557 11.2402 15.0557C11.3822 15.0557 11.503 15.0022 11.6025 14.8955L12.3269 14.1171L16.1834 9.97339C16.2828 9.86654 16.3326 9.7368 16.3326 9.58414C16.3327 9.43156 16.2828 9.3018 16.1834 9.19495Z" fill="white"/>
</svg>
