<svg width="145" height="48" viewBox="0 0 145 48" fill="none" xmlns="http://www.w3.org/2000/svg">
<path fill-rule="evenodd" clip-rule="evenodd" d="M25.7167 13.9335H11.567V10.4835H24.2007C25.0381 10.4835 25.7167 11.1745 25.7167 12.0266V13.9335ZM25.7167 18.4495C25.7167 19.3017 25.0381 19.9927 24.2007 19.9927H11.567V16.5427H25.7167V18.4495ZM39.104 45.7882L30.129 30.3111C35.8571 27.4855 38.4925 22.0917 38.4925 16.1178C38.4925 11.3677 36.9108 7.51407 33.8175 4.4973C30.7238 1.47758 26.1134 0 20.0548 0H1.14613C0.51293 0 0 0.500741 0 1.11829V46.3387C0 46.9558 0.51293 47.4565 1.14613 47.4565H11.4027C12.0359 47.4565 12.5488 46.9558 12.5488 46.3387V32.6226H17.3365L25.2877 46.873C25.4888 47.2327 25.8749 47.4565 26.2949 47.4565H38.1064C38.9842 47.4565 39.536 46.5334 39.104 45.7882Z" fill="white"/>
<path fill-rule="evenodd" clip-rule="evenodd" d="M116.365 3.08906C117 3.72354 118.115 3.72354 118.749 3.08906C119.384 2.45459 119.384 1.33945 118.749 0.724199C118.115 0.0897238 117 0.0897238 116.365 0.724199C115.731 1.33945 115.731 2.45459 116.365 3.08906ZM48.688 1.0126V10.0298C48.688 11.8179 49.2071 13.1638 50.2645 14.0866C51.322 15.0095 52.6486 15.4709 54.2444 15.4709C55.8402 15.4709 57.1669 15.0095 58.2051 14.0866C59.2625 13.1638 59.7817 11.8179 59.7817 10.0298V1.0126H56.8977V9.83757C56.8977 11.6833 55.8594 12.7023 54.2444 12.7023C52.5717 12.7023 51.5527 11.741 51.5527 9.83757V1.0126H48.688ZM61.2236 15.221H64.5691L67.5684 10.2413L70.5293 15.221H73.817L69.3565 8.03028L73.8362 1.0126H70.4908L67.5876 5.87691L64.819 1.0126H61.5313L65.7803 8.03028L61.2236 15.221ZM85.6221 15.221H80.181V1.0126H85.7375C87.8716 1.0126 89.5443 1.64707 90.7556 2.93525C91.9669 4.2042 92.5821 5.93459 92.5821 8.14564C92.5821 10.3182 91.9669 12.0486 90.7171 13.3176C89.4866 14.5865 87.7947 15.221 85.6221 15.221ZM83.0265 12.4908V3.74276H85.7567C86.9872 3.74276 87.9293 4.16575 88.6022 4.99249C89.2751 5.81923 89.6212 6.83823 89.6212 8.08796C89.6212 9.35691 89.2751 10.4144 88.6022 11.2411C87.9293 12.0678 86.9872 12.4908 85.7567 12.4908H83.0265ZM104.81 9.74144C104.81 10.1067 104.772 10.5105 104.714 10.9335H96.8504C97.2349 12.4139 98.2539 13.1638 99.9074 13.1638C101.042 13.1638 102.388 12.7215 103.291 12.1063L104.368 14.0097C103.041 14.9711 101.522 15.4517 99.792 15.4517C97.9463 15.4517 96.5428 14.9134 95.5622 13.8559C94.5817 12.7985 94.101 11.491 94.101 9.97215C94.101 8.37635 94.6009 7.06895 95.6199 6.03072C96.6389 4.99249 97.9463 4.47337 99.5613 4.47337C101.08 4.47337 102.349 4.95403 103.33 5.89613C104.31 6.83823 104.81 8.10718 104.81 9.74144ZM96.8504 8.9147C97.1772 7.54961 98.1962 6.72287 99.5613 6.72287C100.946 6.72287 101.926 7.54961 102.176 8.9147H96.8504ZM110.117 15.4902C108.29 15.4902 106.848 14.8172 105.791 13.4714L107.233 11.7602C107.983 12.6639 109.078 13.2214 110.136 13.2214C110.963 13.2214 111.578 12.7985 111.578 12.2024C111.578 11.8371 111.328 11.5295 110.828 11.2988C110.655 11.2219 110.251 11.0681 109.578 10.8181C108.905 10.5682 108.463 10.3759 108.232 10.2606C107.021 9.68376 106.425 8.78011 106.425 7.54961C106.425 6.62674 106.79 5.87691 107.502 5.28088C108.213 4.68486 109.175 4.39646 110.347 4.39646C111.828 4.39646 113.058 4.89635 114.02 5.89613L112.674 7.64575C111.943 6.95359 111.136 6.60751 110.27 6.60751C109.559 6.60751 109.078 7.01127 109.078 7.49193C109.078 7.93414 109.386 8.24177 110.001 8.45326C111.386 8.97238 112.232 9.31845 112.52 9.47227C113.693 10.0875 114.289 10.9719 114.289 12.1255C114.289 13.1061 113.904 13.9136 113.135 14.5481C112.385 15.1825 111.366 15.4902 110.117 15.4902ZM118.903 4.74254V15.221H116.192V4.74254H118.903ZM129.343 4.74254V5.89613C128.478 4.95403 127.401 4.47337 126.113 4.47337C124.594 4.47337 123.325 4.99249 122.306 6.01149C121.287 7.0305 120.768 8.31867 120.768 9.87602C120.768 11.4334 121.249 12.7023 122.229 13.7213C123.21 14.7403 124.46 15.2402 125.998 15.2402C127.344 15.2402 128.42 14.798 129.228 13.8944V14.4327C129.228 16.1246 128.036 17.3359 125.959 17.3359C124.729 17.3359 123.498 16.9322 122.287 16.1054L121.23 18.1434C122.633 19.1624 124.248 19.6623 126.036 19.6623C127.747 19.6623 129.151 19.1624 130.228 18.1819C131.304 17.2013 131.843 15.8555 131.843 14.1828V4.74254H129.343ZM123.498 9.89525C123.498 10.7604 123.768 11.4718 124.325 12.0294C124.883 12.587 125.575 12.8754 126.402 12.8754C127.228 12.8754 127.92 12.587 128.478 12.0294C129.036 11.4526 129.305 10.7412 129.305 9.89525C129.305 9.04928 129.036 8.35713 128.478 7.79956C127.92 7.24199 127.228 6.95359 126.402 6.95359C125.575 6.95359 124.883 7.24199 124.325 7.79956C123.768 8.35713 123.498 9.04928 123.498 9.89525ZM134.304 15.221H137.015V9.60685C137.015 8.0495 137.976 6.95359 139.418 6.95359C140.745 6.95359 141.629 7.87646 141.629 9.54917V15.221H144.34V8.81856C144.34 7.41503 143.936 6.33834 143.148 5.58851C142.36 4.83867 141.379 4.45414 140.245 4.45414C138.764 4.45414 137.514 5.18475 136.957 6.20376V4.74254H134.304V15.221Z" fill="white"/>
<path fill-rule="evenodd" clip-rule="evenodd" d="M64.489 28.4008C65.0561 29.2756 66.0367 29.7562 67.1134 29.7562C67.8632 29.7562 68.4785 29.5544 68.9495 29.1602C69.4206 28.7661 69.6609 28.247 69.6609 27.6221C69.6609 26.8627 69.2667 26.2762 68.4881 25.8821C68.315 25.7956 68.0362 25.661 67.6421 25.4976L66.8923 25.1515C66.4981 24.9496 66.3059 24.6997 66.3059 24.4017C66.3059 23.9498 66.6904 23.6518 67.2672 23.6518C67.7767 23.6518 68.4015 23.8922 68.7957 24.344L69.5263 23.4019C68.9303 22.7482 68.1708 22.4213 67.248 22.4213C66.5462 22.4213 65.979 22.6136 65.5464 23.0077C65.1138 23.3923 64.8927 23.8729 64.8927 24.4593C64.8927 25.1899 65.2676 25.7764 66.0078 26.209C66.1905 26.3147 66.4693 26.4493 66.8442 26.6031C67.2191 26.7473 67.4498 26.8434 67.546 26.8915C67.9882 27.1126 68.2093 27.3818 68.2093 27.699C68.2093 28.1701 67.7671 28.5257 67.123 28.5257C66.3443 28.5257 65.7291 28.1797 65.2772 27.4971L64.489 28.4008ZM55.0103 29.6409H53.4529L51.8667 26.978H50.9919V29.6409H49.6845V22.5367H52.3282C53.0972 22.5367 53.6836 22.7482 54.097 23.1808C54.5104 23.6134 54.7123 24.1325 54.7123 24.7573C54.7123 25.6802 54.2124 26.507 53.2222 26.8242L55.0103 29.6409ZM52.3282 23.7576H50.9919V25.7956H52.184C52.9819 25.7956 53.3664 25.3438 53.3664 24.767C53.3664 24.1998 52.9819 23.7576 52.3282 23.7576ZM56.0966 22.5367V29.6409H57.4136V22.5367H56.0966ZM63.768 29.6409H59.0478V22.5367H63.768V23.7672H60.3649V25.4399H63.5084V26.6608H60.3649V28.4104H63.768V29.6409ZM75.5538 29.6409H70.8337V22.5367H75.5538V23.7672H72.1507V25.4399H75.2943V26.6608H72.1507V28.4104H75.5538V29.6409ZM81.5621 22.5367V27.0934L77.6783 22.5367H76.8901V29.6409H78.1879V25.1227L82.0043 29.6409H82.8599V22.5367H81.5621ZM84.4941 29.6409V22.5367H85.8112V29.6409H84.4941ZM91.7906 29.6409H93.1845L90.464 22.5367H89.4546L86.7052 29.6409H88.0991L88.6855 28.0259H91.2042L91.7906 29.6409ZM90.8293 26.8434L89.9545 24.4113L89.0701 26.8434H90.8293ZM93.694 29.0449C93.694 29.4678 94.0305 29.7947 94.4535 29.7947C94.8669 29.7947 95.1841 29.4678 95.1841 29.0449C95.1841 28.6315 94.8669 28.3143 94.4535 28.3143C94.0305 28.3143 93.694 28.6315 93.694 29.0449ZM98.5968 29.7562C97.7893 29.7562 97.126 29.4967 96.6069 28.9872C96.0974 28.4777 95.8378 27.824 95.8378 27.0261C95.8378 26.2282 96.0974 25.5745 96.6165 25.065C97.1356 24.5555 97.8085 24.2959 98.6353 24.2959C99.7023 24.2959 100.635 24.815 101.058 25.7283L100.039 26.2762C99.7312 25.7667 99.2313 25.4495 98.6545 25.4495C98.2027 25.4495 97.8277 25.6033 97.5297 25.9013C97.2317 26.1993 97.0875 26.5743 97.0875 27.0261C97.0875 27.4779 97.2317 27.8528 97.5201 28.1508C97.8085 28.4488 98.1738 28.6027 98.616 28.6027C99.1928 28.6027 99.76 28.2758 100.02 27.7855L101.039 28.3815C100.587 29.2179 99.6639 29.7562 98.5968 29.7562ZM102.375 25.0842C101.856 25.6129 101.596 26.257 101.596 27.0261C101.596 27.8048 101.856 28.4585 102.375 28.9872C102.904 29.5159 103.567 29.7755 104.384 29.7755C105.201 29.7755 105.864 29.5159 106.384 28.9872C106.912 28.4585 107.172 27.8048 107.172 27.0261C107.172 26.257 106.912 25.6129 106.384 25.0842C105.864 24.5555 105.201 24.2863 104.384 24.2863C103.567 24.2863 102.904 24.5555 102.375 25.0842ZM105.912 27.0261C105.912 26.5935 105.768 26.2186 105.47 25.9109C105.172 25.6033 104.817 25.4495 104.384 25.4495C103.951 25.4495 103.596 25.6033 103.298 25.9109C103 26.2186 102.855 26.5935 102.855 27.0261C102.855 27.4683 103 27.8432 103.298 28.1508C103.596 28.4585 103.951 28.6123 104.384 28.6123C104.817 28.6123 105.172 28.4585 105.47 28.1508C105.768 27.8432 105.912 27.4683 105.912 27.0261ZM115.92 24.8727C115.526 24.4786 115.026 24.2767 114.401 24.2767C113.603 24.2767 112.901 24.6228 112.526 25.2092C112.248 24.6035 111.652 24.2863 110.969 24.2767C110.287 24.2767 109.681 24.6228 109.383 25.1707V24.4209H108.152V29.6409H109.402V26.7761C109.402 25.959 109.912 25.4303 110.613 25.4303C111.277 25.4303 111.719 25.9206 111.719 26.7377V29.6409H112.969V26.7665C112.969 25.959 113.469 25.4303 114.17 25.4303C114.824 25.4303 115.257 25.8821 115.257 26.7281V29.6409H116.516V26.4973C116.516 25.8052 116.314 25.2669 115.92 24.8727Z" fill="white"/>
</svg>
