<svg width="275" height="44" viewBox="0 0 275 44" fill="none" xmlns="http://www.w3.org/2000/svg">
<g id="Group 3">
<mask id="mask0_0_157" style="mask-type:alpha" maskUnits="userSpaceOnUse" x="0" y="0" width="275" height="44">
<path id="Clip 2" fill-rule="evenodd" clip-rule="evenodd" d="M0.5 0H274.5V44H0.5V0Z" fill="white"/>
</mask>
<g mask="url(#mask0_0_157)">
<path id="Fill 1" fill-rule="evenodd" clip-rule="evenodd" d="M22.9597 11.2922C22.9597 10.5268 22.367 9.90615 21.6357 9.90615H10.6022V13.0049H22.9597V11.2922ZM22.9597 15.3484H10.6022V18.4471H21.6357C22.367 18.4471 22.9597 17.8265 22.9597 17.0606V15.3484ZM34.6512 41.6158C35.0285 42.2855 34.5461 43.1147 33.78 43.1147H23.4646C23.0978 43.1147 22.7602 42.9137 22.585 42.5905L15.6405 29.7911H11.4597V42.1102C11.4597 42.6649 11.0118 43.1147 10.4588 43.1147H1.5014C0.948399 43.1147 0.5 42.6649 0.5 42.1102V1.49402C0.5 0.939796 0.948399 0.49004 1.5014 0.49004H18.0149C23.3057 0.49004 27.3325 1.81673 30.0343 4.529C32.7358 7.2386 34.1171 10.7003 34.1171 14.9668C34.1171 20.3324 31.8156 25.1766 26.8126 27.7149L34.6512 41.6158ZM258.826 26.1231L254.801 13.494L250.604 26.1231H258.826ZM273.482 43.2501H264.629C264.186 43.2501 263.794 42.9624 263.66 42.5392L261.413 35.4652H247.902L245.601 42.5458C245.465 42.9659 245.074 43.2501 244.633 43.2501H235.731C235.024 43.2501 234.533 42.5454 234.775 41.8791L249.555 1.30456C249.701 0.902169 250.083 0.634351 250.51 0.634351H259.085C259.516 0.634351 259.9 0.906153 260.044 1.31297L274.44 41.8876C274.676 42.552 274.185 43.2501 273.482 43.2501ZM228.948 0.634351H220.174C219.612 0.634351 219.156 1.09119 219.156 1.65471V42.2297C219.156 42.7933 219.612 43.2501 220.174 43.2501H228.948C229.51 43.2501 229.966 42.7933 229.966 42.2297V1.65471C229.966 1.09119 229.51 0.634351 228.948 0.634351ZM209.748 0.634351H201.204C200.642 0.634351 200.187 1.09119 200.187 1.65471V23.7587L180.829 0.992475C180.636 0.765383 180.352 0.634351 180.054 0.634351H173.838C173.276 0.634351 172.82 1.09119 172.82 1.65471V42.2297C172.82 42.7933 173.276 43.2501 173.838 43.2501H182.324C182.886 43.2501 183.341 42.7933 183.341 42.2297V20.4139L202.354 42.8898C202.548 43.1186 202.831 43.2501 203.13 43.2501H209.748C210.31 43.2501 210.765 42.7933 210.765 42.2297V1.65471C210.765 1.09119 210.31 0.634351 209.748 0.634351ZM164.618 0.634351H134.935V43.2501H164.561C165.123 43.2501 165.578 42.7933 165.578 42.2297V34.2944C165.578 33.7304 165.123 33.2736 164.561 33.2736H145.743V26.815H163.123C163.686 26.815 164.141 26.3581 164.141 25.7946V17.9168C164.141 17.3533 163.686 16.8964 163.123 16.8964H145.743V10.6104H164.618C165.18 10.6104 165.636 10.1536 165.636 9.59008V1.65471C165.636 1.09119 165.18 0.634351 164.618 0.634351ZM120.736 19.2032C119.644 18.7419 117.976 18.1076 115.849 17.3577L112.112 15.9739C109.87 15.1089 108.72 14.0708 108.72 12.8021C108.72 11.2448 110.33 10.0341 113.262 10.0341C116.135 10.0341 119.786 11.1819 122.336 12.9044C122.823 13.2328 123.481 13.1045 123.788 12.6025L127.74 6.13236C128.009 5.69323 127.914 5.11421 127.507 4.80035C123.357 1.59982 118.583 0 113.09 0C108.432 0 104.638 1.26826 101.706 3.74812C98.774 6.22798 97.2788 9.39973 97.2788 13.1479C97.2788 18.0496 99.6359 21.7406 104.293 24.22C105.5 24.8544 107.34 25.5467 109.698 26.4112L113.492 27.6804C115.792 28.5449 116.942 29.641 116.942 30.9672C116.942 32.9854 114.757 34.081 112.169 34.081C108.036 34.081 104.293 32.5622 100.941 29.5241C100.485 29.1107 99.7706 29.1939 99.4228 29.7021L95.1546 35.942C94.8845 36.3373 94.9185 36.8734 95.2508 37.2174C99.6037 41.722 105.22 44 111.997 44C117.114 44 121.196 42.7313 124.243 40.1939C127.29 37.5989 128.843 34.3696 128.843 30.3904C128.843 25.2581 126.14 21.51 120.736 19.2032ZM89.9397 0.634351H60.2558V43.2501H89.8819C90.4438 43.2501 90.8992 42.7933 90.8992 42.2297V34.2944C90.8992 33.7304 90.4438 33.2736 89.8819 33.2736H71.0646V26.815H88.4445C89.0068 26.815 89.4622 26.3581 89.4622 25.7946V17.9168C89.4622 17.3533 89.0068 16.8964 88.4445 16.8964H71.0646V10.6104H89.9397C90.5016 10.6104 90.957 10.1536 90.957 9.59008V1.65471C90.957 1.09119 90.5016 0.634351 89.9397 0.634351ZM51.8629 1.65471V42.2297C51.8629 42.7933 51.4074 43.2501 50.8456 43.2501H42.0718C41.51 43.2501 41.0545 42.7933 41.0545 42.2297V1.65471C41.0545 1.09119 41.51 0.634351 42.0718 0.634351H50.8456C51.4074 0.634351 51.8629 1.09119 51.8629 1.65471Z" fill="white"/>
</g>
</g>
</svg>
